<svg width="48" height="48" viewBox="0 0 48 48" fill="none" xmlns="http://www.w3.org/2000/svg">
<path fill-rule="evenodd" clip-rule="evenodd" d="M18.637 4.14756L26.1731 8.86706L12.9624 17.1277L12.9448 30.4746L18.074 34.0008L18.2983 20.6912L32.2812 12.2751L37.9811 15.591L38.1018 38.1935C39.9027 37.9651 42.005 36.7655 43.4491 35.4702L43.6915 12.157C40.0508 9.93972 27.079 1.89088 24.034 1.00002L18.6365 4.14756H18.637Z" fill="#0098DA"/>
<path fill-rule="evenodd" clip-rule="evenodd" d="M4 35.163L23.6197 46.2138C26.1244 45.5612 33.7641 41.2867 35.4148 39.795L35.3873 23.9211L28.3858 18.984C26.4347 19.4921 24.4877 20.5581 23.1116 21.8032L29.7449 26.8267L29.6718 36.4915L23.6637 39.9286L9.82634 31.6509L9.84809 15.5749C8.24506 14.4168 6.19763 12.8267 4.29316 12.7294L4 35.163Z" fill="#0098DA"/>
<path fill-rule="evenodd" clip-rule="evenodd" d="M7.77014 10.5157L12.73 13.7746L21.3278 8.94113C20.2707 7.56185 18.0793 6.54305 16.4861 5.7765C14.4475 6.23747 9.47158 9.15659 7.77066 10.5152L7.77014 10.5157Z" fill="#0098DA"/>
</svg>
