<svg width="206" height="46" viewBox="0 0 206 46" fill="none" xmlns="http://www.w3.org/2000/svg">
<g clip-path="url(#clip0_2122_33)">
<path fill-rule="evenodd" clip-rule="evenodd" d="M14.6371 3.54088L22.1731 8.26037L8.9625 16.521L8.94489 29.8679L14.0741 33.3941L14.2983 20.0845L28.2812 11.6684L33.9812 14.9843L34.1019 37.5868C35.9028 37.3584 38.0051 36.1588 39.4491 34.8635L39.6915 11.5503C36.0509 9.33303 23.079 1.2842 20.034 0.393341L14.6366 3.54088H14.6371Z" fill="#0EA5E9"/>
<path fill-rule="evenodd" clip-rule="evenodd" d="M0 34.5563L19.6197 45.6072C22.1244 44.9546 29.7641 40.68 31.4148 39.1883L31.3873 23.3144L24.3858 18.3774C22.4347 18.8855 20.4877 19.9514 19.1116 21.1965L25.7449 26.22L25.6718 35.8849L19.6637 39.3219L5.82634 31.0442L5.84809 14.9683C4.24506 13.8101 2.19763 12.2201 0.293156 12.1227L0 34.5563Z" fill="#0EA5E9"/>
<path fill-rule="evenodd" clip-rule="evenodd" d="M3.77008 9.90898L8.7299 13.1679L17.3278 8.33443C16.2706 6.95515 14.0792 5.93636 12.486 5.1698C10.4474 5.63077 5.47152 8.5499 3.7706 9.90846L3.77008 9.90898Z" fill="#0EA5E9"/>
<path d="M58.5177 32.6933V17.6263H53.5309V13.3062H68.731V17.6263H63.7707V32.6933H58.5177ZM71.4999 32.6933V13.3067H86.0645V17.6269H76.7001V20.9868H85.7931V24.7201H76.7001V28.3731H86.2732V32.6933H71.4999ZM105.5 25.2266V25.7865C105.5 28.3156 104.945 30.1419 103.834 31.2576C102.723 32.3727 100.909 32.9331 98.3848 32.9331H96.6248C93.8823 32.9331 91.9623 32.3463 90.8601 31.1773C89.7579 30.0083 89.2063 27.9505 89.2063 25.0039V20.9862C89.2063 18.0391 89.7579 15.9865 90.8601 14.8175C91.9623 13.6485 93.8823 13.0664 96.6248 13.0664H98.06C100.78 13.0664 102.678 13.5776 103.753 14.6041C104.829 15.626 105.366 17.4352 105.366 20.0218V20.3999H100.193V20.0488C100.193 19.1641 99.9883 18.5379 99.5797 18.1728C99.1752 17.8087 98.4594 17.6263 97.4463 17.6263C96.3265 17.6263 95.5796 17.8439 95.2062 18.2753C94.8333 18.7109 94.6463 19.7556 94.6463 21.413V24.5994C94.6463 26.2532 94.8327 27.2974 95.2062 27.7283C95.5796 28.1592 96.3265 28.3726 97.4463 28.3726C98.4951 28.3726 99.2197 28.1727 99.6196 27.777C100.02 27.3818 100.22 26.6795 100.22 25.6705V25.2261H105.5L105.5 25.2266ZM108.647 32.6933V13.3067H113.847V20.56H120.621V13.3067H125.82V32.6933H120.621V25.1199H113.847V32.6933H108.647ZM155.852 19.3599H150.656C150.638 18.7508 150.416 18.3111 149.985 18.0355C149.553 17.7641 148.86 17.6263 147.896 17.6263H146.594C145.403 17.6263 144.62 17.8439 144.238 18.2753C143.856 18.7109 143.665 19.7598 143.665 21.4177V24.6087C143.665 26.2485 143.856 27.2886 144.238 27.7242C144.621 28.1556 145.403 28.3731 146.594 28.3731H148.038C149.06 28.3731 149.776 28.2312 150.18 27.9417C150.585 27.6573 150.785 27.1637 150.785 26.4614V25.7057H147.816V22.0791H155.852V25.3945C155.852 28.0121 155.278 29.928 154.127 31.1281C152.976 32.3323 151.158 32.9326 148.679 32.9326H145.15C142.963 32.9326 141.31 32.2396 140.181 30.8567C139.056 29.4701 138.492 27.4258 138.492 24.7279V21.7813C138.492 18.7586 139.087 16.5501 140.274 15.1547C141.461 13.7635 143.336 13.0659 145.905 13.0659H148.727C150.811 13.0659 152.519 13.5859 153.852 14.6218C155.185 15.6613 155.852 16.9639 155.852 18.5374V19.3594V19.3599ZM164.359 22.6664H167.265C168.132 22.6664 168.724 22.5152 169.034 22.2086C169.35 21.9061 169.506 21.3462 169.506 20.5284V19.7862C169.506 18.9637 169.346 18.395 169.03 18.0883C168.715 17.7812 168.123 17.6263 167.265 17.6263H164.359V22.6664ZM159.159 32.6933V13.3067H166.976C169.963 13.3067 172.007 13.6977 173.119 14.4845C174.23 15.2713 174.786 16.649 174.786 18.6177V20.1777C174.786 21.4886 174.47 22.5152 173.834 23.2574C173.203 23.9996 172.265 24.4482 171.025 24.6041C172.336 24.8216 173.292 25.2577 173.887 25.9062C174.487 26.5598 174.785 27.4885 174.785 28.6932V32.6933H169.478V29.2044C169.478 28.3778 169.318 27.8086 169.003 27.502C168.687 27.1953 168.096 27.04 167.239 27.04H164.359V32.6933H159.159ZM178.461 32.6933V13.3067H183.714V32.6933H178.461ZM187.794 32.6933V13.3067H197.656C200.399 13.3067 202.319 13.8801 203.421 15.0268C204.523 16.1689 205.074 18.1733 205.074 21.0401V24.9604C205.074 27.8272 204.523 29.8317 203.421 30.9737C202.319 32.1205 200.399 32.6938 197.656 32.6938H187.794V32.6933ZM192.994 28.3731H196.861C198.052 28.3731 198.834 28.1597 199.208 27.7335C199.581 27.3108 199.767 26.2667 199.767 24.6087V21.4177C199.767 19.7598 199.581 18.7109 199.203 18.2795C198.825 17.8439 198.043 17.6263 196.861 17.6263H192.994V28.3731Z" fill="#0EA5E9"/>
</g>
<defs>
<clipPath id="clip0_2122_33">
<rect width="205.074" height="45.2134" fill="white" transform="translate(0 0.393311)"/>
</clipPath>
</defs>
</svg>
